<?xml version="1.0" encoding="UTF-8" standalone="no" ?>
<!DOCTYPE svg PUBLIC "-//W3C//DTD SVG 1.1//EN" "http://www.w3.org/Graphics/SVG/1.1/DTD/svg11.dtd">
<svg xmlns="http://www.w3.org/2000/svg" xmlns:xlink="http://www.w3.org/1999/xlink" version="1.1" width="1024" height="1024" viewBox="0 0 1024 1024" xml:space="preserve">
<desc>Created with Fabric.js 3.1.0</desc>
<defs>
</defs>
<g transform="matrix(1.5745007680491552 0 0 1.5745007680491552 511.98661674347153 512.0860003178134)"  >
<path style="stroke: none; stroke-width: 1; stroke-dasharray: none; stroke-linecap: butt; stroke-dashoffset: 0; stroke-linejoin: miter; stroke-miterlimit: 10; fill: rgb(255,48,224); fill-rule: nonzero; opacity: 1;"  paint-order="stroke"  transform=" translate(-184.99999999999997, 20.135)" d="M 5.35 0.06 L 5.35 0.06 L 5.35 -40.27 Q 5.35 -41.07 5.91 -41.61 Q 6.46 -42.14 7.26 -42.14 Q 8.06 -42.14 8.6 -41.61 Q 9.14 -41.07 9.14 -40.27 L 9.14 -40.27 L 9.14 0.06 Q 9.14 0.86 8.6 1.4 Q 8.06 1.94 7.26 1.94 Q 6.46 1.94 5.91 1.4 Q 5.35 0.86 5.35 0.06 Z M 11.77 -38.91 Q 11.23 -39.47 11.23 -40.27 Q 11.23 -41.07 11.77 -41.61 Q 12.3 -42.14 13.1 -42.14 L 13.1 -42.14 L 22.73 -42.14 Q 26.12 -42.14 28.59 -41.21 Q 31.07 -40.27 32.42 -38.64 Q 33.78 -37.01 34.41 -35.13 Q 35.04 -33.25 35.04 -31.07 L 35.04 -31.07 Q 35.04 -26.49 31.79 -23.64 Q 28.55 -20.79 22.73 -20.79 L 22.73 -20.79 L 13.66 -20.79 Q 12.86 -20.79 12.32 -21.33 Q 11.78 -21.87 11.78 -22.67 Q 11.78 -23.47 12.32 -24.02 Q 12.86 -24.58 13.66 -24.58 L 13.66 -24.58 L 22.73 -24.58 Q 26.89 -24.58 29.07 -26.35 Q 31.25 -28.12 31.25 -31.07 L 31.25 -31.07 Q 31.25 -38.36 22.73 -38.36 L 22.73 -38.36 L 13.1 -38.36 Q 12.3 -38.36 11.77 -38.91 Z M 12.2 1.34 Q 11.66 0.8 11.66 0 Q 11.66 -0.8 12.2 -1.34 Q 12.74 -1.88 13.54 -1.88 L 13.54 -1.88 L 23.69 -1.88 Q 25.41 -1.88 26.92 -2.14 Q 28.42 -2.4 29.93 -3.08 Q 31.44 -3.75 32.52 -4.83 Q 33.59 -5.91 34.25 -7.66 Q 34.91 -9.41 34.91 -11.66 L 34.91 -11.66 L 34.91 -11.72 Q 34.91 -16.46 32.27 -18.76 L 32.27 -18.76 Q 31.56 -19.38 31.56 -20.21 L 31.56 -20.21 Q 31.56 -20.89 32.05 -21.47 L 32.05 -21.47 Q 32.67 -22.18 33.53 -22.18 L 33.53 -22.18 Q 34.18 -22.18 34.76 -21.69 L 34.76 -21.69 Q 36.67 -20.03 37.71 -17.44 Q 38.76 -14.86 38.76 -11.72 L 38.76 -11.72 L 38.67 -11.66 Q 38.67 -5.26 34.65 -1.69 Q 30.64 1.88 23.69 1.88 L 23.69 1.88 L 13.54 1.88 Q 12.74 1.88 12.2 1.34 Z M 48.05 0 L 48.05 0 L 48.05 -40.33 Q 48.05 -41.13 48.6 -41.67 Q 49.16 -42.21 49.96 -42.21 Q 50.76 -42.21 51.3 -41.67 Q 51.83 -41.13 51.83 -40.33 L 51.83 -40.33 L 51.83 0 Q 51.83 0.8 51.3 1.34 Q 50.76 1.88 49.96 1.88 Q 49.16 1.88 48.6 1.34 Q 48.05 0.8 48.05 0 Z M 54.89 -38.98 Q 54.36 -39.53 54.36 -40.33 Q 54.36 -41.13 54.89 -41.67 Q 55.43 -42.21 56.23 -42.21 L 56.23 -42.21 L 66.2 -42.21 L 66.2 -42.14 Q 71.64 -42.14 74.81 -39.21 Q 77.98 -36.27 77.98 -30.67 L 77.98 -30.67 Q 77.98 -25.16 74.83 -22.32 Q 71.67 -19.47 66.32 -19.47 L 66.32 -19.47 L 56.63 -19.47 Q 55.83 -19.47 55.28 -20.01 Q 54.73 -20.55 54.73 -21.35 Q 54.73 -22.15 55.28 -22.7 Q 55.83 -23.26 56.63 -23.26 L 56.63 -23.26 L 66.32 -23.26 Q 74.2 -23.26 74.2 -30.73 L 74.2 -30.73 Q 74.2 -38.42 66.2 -38.42 L 66.2 -38.42 L 56.23 -38.42 Q 55.43 -38.42 54.89 -38.98 Z M 59.09 -16.3 L 59.09 -16.3 Q 59.09 -17.04 59.59 -17.63 L 59.59 -17.63 Q 60.17 -18.21 60.91 -18.21 L 60.91 -18.21 Q 61.62 -18.21 62.23 -17.69 L 62.23 -17.69 L 79.49 -1.32 Q 80.07 -0.74 80.07 0 L 80.07 0 Q 80.07 0.71 79.55 1.32 L 79.55 1.32 Q 79 1.88 78.23 1.88 L 78.23 1.88 Q 77.49 1.88 76.9 1.38 L 76.9 1.38 L 59.65 -14.98 Q 59.09 -15.53 59.09 -16.3 Z M 88.93 0 L 88.93 0 L 88.93 -40.33 Q 88.93 -41.13 89.49 -41.67 Q 90.04 -42.21 90.84 -42.21 Q 91.64 -42.21 92.18 -41.67 Q 92.72 -41.13 92.72 -40.33 L 92.72 -40.33 L 92.72 0 Q 92.72 0.8 92.18 1.34 Q 91.64 1.88 90.84 1.88 Q 90.04 1.88 89.49 1.34 Q 88.93 0.8 88.93 0 Z M 94.78 1.34 Q 94.22 0.8 94.22 0 Q 94.22 -0.8 94.78 -1.34 Q 95.33 -1.88 96.13 -1.88 L 96.13 -1.88 L 116.28 -1.88 Q 117.08 -1.88 117.62 -1.34 Q 118.16 -0.8 118.16 0 Q 118.16 0.8 117.62 1.34 Q 117.08 1.88 116.28 1.88 L 116.28 1.88 L 96.13 1.88 Q 95.33 1.88 94.78 1.34 Z M 94.9 -20.33 Q 94.35 -20.89 94.35 -21.69 Q 94.35 -22.49 94.9 -23.03 Q 95.45 -23.56 96.25 -23.56 L 96.25 -23.56 L 112.5 -23.56 Q 113.3 -23.56 113.83 -23.03 Q 114.37 -22.49 114.37 -21.69 Q 114.37 -20.89 113.83 -20.33 Q 113.3 -19.78 112.5 -19.78 L 112.5 -19.78 L 96.25 -19.78 Q 95.45 -19.78 94.9 -20.33 Z M 94.9 -38.98 Q 94.35 -39.53 94.35 -40.33 Q 94.35 -41.13 94.9 -41.67 Q 95.45 -42.21 96.25 -42.21 L 96.25 -42.21 L 116.22 -42.21 Q 117.02 -42.21 117.56 -41.67 Q 118.09 -41.13 118.09 -40.33 Q 118.09 -39.53 117.56 -38.98 Q 117.02 -38.42 116.22 -38.42 L 116.22 -38.42 L 96.25 -38.42 Q 95.45 -38.42 94.9 -38.98 Z M 127.42 0 L 127.42 0 L 127.42 -40.33 Q 127.42 -41.13 127.97 -41.67 Q 128.52 -42.21 129.32 -42.21 Q 130.12 -42.21 130.66 -41.67 Q 131.2 -41.13 131.2 -40.33 L 131.2 -40.33 L 131.2 0 Q 131.2 0.8 130.66 1.34 Q 130.12 1.88 129.32 1.88 Q 128.52 1.88 127.97 1.34 Q 127.42 0.8 127.42 0 Z M 133.26 1.34 Q 132.71 0.8 132.71 0 Q 132.71 -0.8 133.26 -1.34 Q 133.81 -1.88 134.61 -1.88 L 134.61 -1.88 L 154.76 -1.88 Q 155.56 -1.88 156.1 -1.34 Q 156.64 -0.8 156.64 0 Q 156.64 0.8 156.1 1.34 Q 155.56 1.88 154.76 1.88 L 154.76 1.88 L 134.61 1.88 Q 133.81 1.88 133.26 1.34 Z M 133.38 -20.33 Q 132.83 -20.89 132.83 -21.69 Q 132.83 -22.49 133.38 -23.03 Q 133.94 -23.56 134.74 -23.56 L 134.74 -23.56 L 150.98 -23.56 Q 151.78 -23.56 152.32 -23.03 Q 152.85 -22.49 152.85 -21.69 Q 152.85 -20.89 152.32 -20.33 Q 151.78 -19.78 150.98 -19.78 L 150.98 -19.78 L 134.74 -19.78 Q 133.94 -19.78 133.38 -20.33 Z M 133.38 -38.98 Q 132.83 -39.53 132.83 -40.33 Q 132.83 -41.13 133.38 -41.67 Q 133.94 -42.21 134.74 -42.21 L 134.74 -42.21 L 154.7 -42.21 Q 155.5 -42.21 156.04 -41.67 Q 156.58 -41.13 156.58 -40.33 Q 156.58 -39.53 156.04 -38.98 Q 155.5 -38.42 154.7 -38.42 L 154.7 -38.42 L 134.74 -38.42 Q 133.94 -38.42 133.38 -38.98 Z M 165.96 0 L 165.96 0 L 165.96 -27.72 Q 165.96 -28.52 166.51 -29.07 Q 167.07 -29.62 167.87 -29.62 Q 168.67 -29.62 169.2 -29.07 Q 169.74 -28.52 169.74 -27.72 L 169.74 -27.72 L 169.74 0 Q 169.74 0.8 169.2 1.34 Q 168.67 1.88 167.87 1.88 Q 167.07 1.88 166.51 1.34 Q 165.96 0.8 165.96 0 Z M 165.96 -40.27 L 165.96 -40.27 Q 165.96 -41.31 166.85 -41.9 L 166.85 -41.9 Q 167.37 -42.21 167.87 -42.21 L 167.87 -42.21 Q 168.91 -42.21 169.5 -41.31 L 169.5 -41.31 L 196.78 -1.02 Q 197.09 -0.49 197.09 0 L 197.09 0 Q 197.09 1.05 196.2 1.63 L 196.2 1.63 Q 195.68 1.94 195.18 1.94 L 195.18 1.94 Q 194.14 1.94 193.55 1.08 L 193.55 1.08 L 166.27 -39.25 Q 165.96 -39.77 165.96 -40.27 Z M 193.25 -12.61 L 193.25 -12.61 L 193.25 -40.33 Q 193.25 -41.13 193.78 -41.67 Q 194.32 -42.21 195.12 -42.21 Q 195.92 -42.21 196.48 -41.67 Q 197.03 -41.13 197.03 -40.33 L 197.03 -40.33 L 197.03 -12.61 Q 197.03 -11.81 196.48 -11.26 Q 195.92 -10.71 195.12 -10.71 Q 194.32 -10.71 193.78 -11.26 Q 193.25 -11.81 193.25 -12.61 Z M 204.6 0.65 Q 203.37 -0.58 203.37 -2.34 Q 203.37 -4.09 204.6 -5.32 Q 205.83 -6.55 207.58 -6.55 Q 209.33 -6.55 210.56 -5.32 Q 211.79 -4.09 211.79 -2.34 Q 211.79 -0.58 210.56 0.65 Q 209.33 1.88 207.58 1.88 Q 205.83 1.88 204.6 0.65 Z M 214.86 -38.98 Q 214.32 -39.53 214.32 -40.33 Q 214.32 -41.13 214.86 -41.67 Q 215.39 -42.21 216.19 -42.21 L 216.19 -42.21 L 245.76 -42.21 Q 246.56 -42.21 247.09 -41.67 Q 247.63 -41.13 247.63 -40.33 Q 247.63 -39.53 247.09 -38.98 Q 246.56 -38.42 245.76 -38.42 L 245.76 -38.42 L 216.19 -38.42 Q 215.39 -38.42 214.86 -38.98 Z M 229.05 0 L 229.05 0 L 229.05 -34.64 Q 229.05 -35.44 229.61 -35.99 Q 230.16 -36.54 230.96 -36.54 Q 231.76 -36.54 232.3 -35.99 Q 232.84 -35.44 232.84 -34.64 L 232.84 -34.64 L 232.84 0 Q 232.84 0.8 232.3 1.34 Q 231.76 1.88 230.96 1.88 Q 230.16 1.88 229.61 1.34 Q 229.05 0.8 229.05 0 Z M 254.43 0 L 254.43 0 L 254.43 -40.33 Q 254.43 -41.13 254.98 -41.67 Q 255.54 -42.21 256.34 -42.21 Q 257.14 -42.21 257.68 -41.67 Q 258.21 -41.13 258.21 -40.33 L 258.21 -40.33 L 258.21 0 Q 258.21 0.8 257.68 1.34 Q 257.14 1.88 256.34 1.88 Q 255.54 1.88 254.98 1.34 Q 254.43 0.8 254.43 0 Z M 260.27 1.34 Q 259.72 0.8 259.72 0 Q 259.72 -0.8 260.27 -1.34 Q 260.83 -1.88 261.63 -1.88 L 261.63 -1.88 L 281.78 -1.88 Q 282.58 -1.88 283.12 -1.34 Q 283.65 -0.8 283.65 0 Q 283.65 0.8 283.12 1.34 Q 282.58 1.88 281.78 1.88 L 281.78 1.88 L 261.63 1.88 Q 260.83 1.88 260.27 1.34 Z M 260.4 -20.33 Q 259.84 -20.89 259.84 -21.69 Q 259.84 -22.49 260.4 -23.03 Q 260.95 -23.56 261.75 -23.56 L 261.75 -23.56 L 277.99 -23.56 Q 278.79 -23.56 279.33 -23.03 Q 279.87 -22.49 279.87 -21.69 Q 279.87 -20.89 279.33 -20.33 Q 278.79 -19.78 277.99 -19.78 L 277.99 -19.78 L 261.75 -19.78 Q 260.95 -19.78 260.4 -20.33 Z M 260.4 -38.98 Q 259.84 -39.53 259.84 -40.33 Q 259.84 -41.13 260.4 -41.67 Q 260.95 -42.21 261.75 -42.21 L 261.75 -42.21 L 281.72 -42.21 Q 282.52 -42.21 283.05 -41.67 Q 283.59 -41.13 283.59 -40.33 Q 283.59 -39.53 283.05 -38.98 Q 282.52 -38.42 281.72 -38.42 L 281.72 -38.42 L 261.75 -38.42 Q 260.95 -38.42 260.4 -38.98 Z M 289.84 -19.16 L 289.84 -19.16 L 289.84 -19.96 Q 289.84 -24.92 291.59 -29.22 L 291.59 -29.22 Q 294.14 -35.68 299.59 -39.19 L 299.59 -39.19 Q 304.26 -42.21 309.86 -42.21 Q 315.46 -42.21 320.14 -39.19 L 320.14 -39.19 Q 321 -38.61 321 -37.56 L 321 -37.56 Q 321 -37.07 320.69 -36.54 L 320.69 -36.54 Q 320.11 -35.65 319.06 -35.65 L 319.06 -35.65 Q 318.57 -35.65 318.05 -35.96 L 318.05 -35.96 Q 314.26 -38.36 309.86 -38.36 Q 305.46 -38.36 301.68 -35.96 L 301.68 -35.96 Q 297.31 -33.07 295.13 -27.65 L 295.13 -27.65 Q 293.62 -23.99 293.62 -19.9 L 293.62 -19.9 L 293.62 -19.29 Q 293.81 -14.61 295.74 -10.95 L 295.74 -10.95 Q 297.93 -6.8 301.68 -4.4 L 301.68 -4.4 Q 305.49 -1.97 309.92 -1.88 L 309.92 -1.88 L 310.17 -1.88 Q 313.19 -1.88 316.2 -3.09 Q 319.21 -4.31 321.52 -6.61 L 321.52 -6.61 Q 322.08 -7.17 322.91 -7.17 L 322.91 -7.17 Q 323.67 -7.17 324.23 -6.61 Q 324.78 -6.06 324.78 -5.29 L 324.78 -5.29 Q 324.78 -4.46 324.23 -3.91 L 324.23 -3.91 Q 321.24 -0.92 317.55 0.46 L 317.55 0.46 Q 314.11 1.75 310.51 1.75 L 310.51 1.75 Q 310.26 1.75 310.05 1.75 L 310.05 1.75 L 309.8 1.75 Q 304.23 1.66 299.59 -1.32 L 299.59 -1.32 Q 294.91 -4.28 292.36 -9.26 L 292.36 -9.26 Q 290.02 -13.84 289.84 -19.16 Z M 333.4 0 L 333.4 0 L 333.4 -40.33 Q 333.4 -41.13 333.93 -41.67 Q 334.47 -42.21 335.27 -42.21 Q 336.07 -42.21 336.63 -41.67 Q 337.18 -41.13 337.18 -40.33 L 337.18 -40.33 L 337.18 0 Q 337.18 0.8 336.63 1.34 Q 336.07 1.88 335.27 1.88 Q 334.47 1.88 333.93 1.34 Q 333.4 0.8 333.4 0 Z M 339.36 -20.33 Q 338.81 -20.89 338.81 -21.69 Q 338.81 -22.49 339.36 -23.03 Q 339.92 -23.56 340.72 -23.56 L 340.72 -23.56 L 357.45 -23.56 Q 358.25 -23.56 358.8 -23.03 Q 359.36 -22.49 359.36 -21.69 Q 359.36 -20.89 358.8 -20.33 Q 358.25 -19.78 357.45 -19.78 L 357.45 -19.78 L 340.72 -19.78 Q 339.92 -19.78 339.36 -20.33 Z M 360.87 0 L 360.87 0 L 360.87 -40.33 Q 360.87 -41.13 361.4 -41.67 Q 361.94 -42.21 362.74 -42.21 Q 363.54 -42.21 364.1 -41.67 Q 364.65 -41.13 364.65 -40.33 L 364.65 -40.33 L 364.65 0 Q 364.65 0.8 364.1 1.34 Q 363.54 1.88 362.74 1.88 Q 361.94 1.88 361.4 1.34 Q 360.87 0.8 360.87 0 Z" stroke-linecap="round" />
</g>
</svg>
